<?xml version='1.0' encoding='utf-8'?>
<svg xmlns="http://www.w3.org/2000/svg" version="1.1" x="0px" y="0px" viewBox="0 0 750 500" style="enable-background:new 0 0 750 500;" xml:space="preserve">
<g id="BACKGROUND">
	<rect style="fill:#F2F2F2;" width="750" height="500" />
</g>
<g id="OBJECTS">
	<g>
		
			<line style="fill:none;stroke:#00BDD6;stroke-width:7.3985;stroke-linecap:round;stroke-linejoin:round;stroke-miterlimit:10;" x1="460.417" y1="185.584" x2="488.791" y2="185.584" />
		<g>
			<g>
				<g style="opacity:0.15;">
					<path d="M702.851,191.617c0,25.936-21.025,46.96-46.96,46.96H534.502c-25.936,0-46.96-21.025-46.96-46.96l0,0       c0-25.936,21.025-46.96,46.96-46.96H655.89C681.826,144.656,702.851,165.681,702.851,191.617L702.851,191.617z" />
					<path d="M487.593,189.563c-0.029,0.681-0.052,1.365-0.052,2.053c0,25.936,21.025,46.96,46.96,46.96H655.89       c25.935,0,46.96-21.025,46.96-46.96c0-0.689-0.023-1.372-0.052-2.053H487.593z" />
				</g>
				<g>
					<g>
						<path style="fill:#00BDD6;" d="M699.763,188.529c0,25.936-21.025,46.96-46.96,46.96H531.414        c-25.936,0-46.96-21.025-46.96-46.96l0,0c0-25.936,21.025-46.96,46.96-46.96h121.389        C678.738,141.569,699.763,162.594,699.763,188.529L699.763,188.529z" />
						<path style="fill:#009EAA;" d="M484.506,186.476c-0.029,0.681-0.052,1.365-0.052,2.053c0,25.936,21.025,46.96,46.96,46.96        h121.389c25.935,0,46.96-21.025,46.96-46.96c0-0.689-0.023-1.372-0.052-2.053H484.506z" />
					</g>
				</g>
			</g>
			
				<ellipse transform="matrix(0.7071 -0.7071 0.7071 0.7071 22.1651 430.3076)" style="fill:#009EAA;" cx="530.51" cy="188.398" rx="36.771" ry="36.771" />
		</g>
		<g>
			
				<ellipse transform="matrix(0.4943 -0.8693 0.8693 0.4943 104.5032 556.4373)" style="fill:#FFFFFF;" cx="530.51" cy="188.398" rx="31.282" ry="31.282" />
			<g>
				<g style="opacity:0.15;">
					<rect x="518.569" y="188.171" width="6.333" height="15.932" />
					<rect x="530.762" y="188.171" width="6.333" height="15.932" />
					<rect x="542.956" y="188.171" width="6.333" height="15.932" />
					<path d="M554.156,207.563c0,1.136-0.921,2.056-2.056,2.056h-36.342c-1.136,0-2.056-0.921-2.056-2.056l0,0       c0-1.136,0.921-2.056,2.056-2.056H552.1C553.236,205.506,554.156,206.427,554.156,207.563L554.156,207.563z" />
					<polygon points="512.143,184.899 533.929,170.861 555.716,184.899      " />
					<path d="M555.736,186.266c-0.007,0-0.014-0.001-0.021,0h-43.573c-0.606,0-1.14-0.4-1.311-0.981       c-0.171-0.581,0.061-1.205,0.571-1.534l21.787-14.038c0.45-0.29,1.029-0.29,1.479,0l21.653,13.951       c0.461,0.219,0.781,0.689,0.781,1.235C557.103,185.653,556.49,186.266,555.736,186.266z M516.785,183.533h34.289       l-17.144-11.046L516.785,183.533z" />
				</g>
				<g>
					<g>
						<g>
							<rect x="515.481" y="185.084" style="fill:#00BDD6;" width="6.333" height="15.932" />
							<rect x="527.675" y="185.084" style="fill:#00BDD6;" width="6.333" height="15.932" />
							<rect x="539.869" y="185.084" style="fill:#00BDD6;" width="6.333" height="15.932" />
						</g>
						<path style="fill:#00BDD6;" d="M551.069,204.475c0,1.136-0.921,2.057-2.056,2.057h-36.342c-1.136,0-2.056-0.921-2.056-2.057        l0,0c0-1.136,0.921-2.056,2.056-2.056h36.342C550.148,202.419,551.069,203.34,551.069,204.475L551.069,204.475z" />
						<g>
							<polygon style="fill:#00BDD6;" points="509.055,181.812 530.842,167.774 552.628,181.812        " />
							<path style="fill:#00BDD6;" d="M552.649,183.178c-0.007,0-0.014-0.001-0.021,0h-43.573c-0.606,0-1.14-0.4-1.311-0.981         c-0.171-0.581,0.061-1.205,0.571-1.534l21.787-14.038c0.45-0.29,1.029-0.29,1.479,0l21.653,13.951         c0.461,0.219,0.781,0.689,0.781,1.235C554.015,182.566,553.403,183.178,552.649,183.178z M513.698,180.445h34.289         l-17.144-11.046L513.698,180.445z" />
						</g>
					</g>
				</g>
			</g>
		</g>
	</g>
	<g>
		
			<line style="fill:none;stroke:#FFB600;stroke-width:7.3985;stroke-linecap:round;stroke-linejoin:round;stroke-miterlimit:10;" x1="290.269" y1="185.584" x2="226.145" y2="185.584" />
		<g>
			<g>
				<g style="opacity:0.15;">
					<path d="M268.633,189.432c0,25.936-21.025,46.96-46.96,46.96H100.284c-25.936,0-46.96-21.025-46.96-46.96l0,0       c0-25.936,21.025-46.96,46.96-46.96h121.389C247.608,142.471,268.633,163.496,268.633,189.432L268.633,189.432z" />
					<path d="M53.342,190.151c0.386,25.602,21.248,46.241,46.942,46.241h121.389c25.694,0,46.556-20.638,46.942-46.241H53.342z" />
				</g>
				<g>
					<g>
						<path style="fill:#FFB600;" d="M265.546,186.344c0,25.936-21.025,46.96-46.96,46.96H97.197        c-25.936,0-46.96-21.025-46.96-46.96l0,0c0-25.935,21.025-46.96,46.96-46.96h121.389        C244.521,139.384,265.546,160.409,265.546,186.344L265.546,186.344z" />
						<path style="fill:#EDA400;" d="M50.255,187.064c0.387,25.602,21.248,46.24,46.942,46.24h121.389        c25.694,0,46.556-20.638,46.942-46.24H50.255z" />
					</g>
				</g>
			</g>
			
				<ellipse transform="matrix(0.7071 -0.7071 0.7071 0.7071 -103.4616 122.91)" style="fill:#EDA400;" cx="96.635" cy="186.344" rx="36.771" ry="36.771" />
		</g>
		<g>
			
				<ellipse transform="matrix(0.7928 -0.6094 0.6094 0.7928 -93.5438 97.493)" style="fill:#FFFFFF;" cx="96.635" cy="186.344" rx="31.282" ry="31.282" />
			<g>
				<g style="opacity:0.15;">
					<path d="M120.601,203.719c0,0.308-0.25,0.558-0.558,0.558H79.401c-0.308,0-0.558-0.25-0.558-0.558l0,0       c0-0.308,0.25-0.558,0.558-0.558h40.642C120.351,203.161,120.601,203.411,120.601,203.719L120.601,203.719z" />
					<path d="M92.858,201.635h-8.486v-11.6c0-1.48,1.2-2.68,2.68-2.68h3.126c1.48,0,2.68,1.2,2.68,2.68V201.635z" />
					<path d="M103.965,201.635h-8.486V183.51c0-1.48,1.2-2.68,2.68-2.68h3.126c1.48,0,2.68,1.2,2.68,2.68V201.635z" />
					<path d="M115.072,201.635h-8.486v-25.717c0-1.48,1.2-2.68,2.68-2.68h3.126c1.48,0,2.68,1.2,2.68,2.68V201.635z" />
				</g>
				<g>
					<g>
						<path style="fill:#FFB600;" d="M117.514,200.632c0,0.308-0.25,0.558-0.558,0.558H76.314c-0.308,0-0.558-0.25-0.558-0.558l0,0        c0-0.308,0.25-0.558,0.558-0.558h40.642C117.264,200.074,117.514,200.324,117.514,200.632L117.514,200.632z" />
						<g>
							<path style="fill:#FFB600;" d="M89.771,198.547h-8.486v-11.6c0-1.48,1.2-2.68,2.68-2.68h3.126c1.48,0,2.68,1.2,2.68,2.68         V198.547z" />
							<path style="fill:#FFB600;" d="M100.878,198.547h-8.486v-18.124c0-1.48,1.2-2.68,2.68-2.68h3.126c1.48,0,2.68,1.2,2.68,2.68         V198.547z" />
							<path style="fill:#FFB600;" d="M111.984,198.547h-8.486v-25.717c0-1.48,1.2-2.68,2.68-2.68h3.126c1.48,0,2.68,1.2,2.68,2.68         V198.547z" />
						</g>
					</g>
				</g>
			</g>
		</g>
	</g>
	<g>
		
			<polyline style="fill:none;stroke:#FF9220;stroke-width:7.3985;stroke-linecap:round;stroke-linejoin:round;stroke-miterlimit:10;" points="    384.55,272.802 384.55,314.806 454.928,314.806   " />
		<g>
			<g>
				<g style="opacity:0.15;">
					<path d="M665.571,316.488c0,25.935-21.025,46.96-46.96,46.96H497.222c-25.936,0-46.96-21.025-46.96-46.96l0,0       c0-25.936,21.025-46.96,46.96-46.96h121.389C644.547,269.528,665.571,290.553,665.571,316.488L665.571,316.488z" />
					<path d="M450.267,316.283c0,0.069-0.005,0.136-0.005,0.205c0,25.935,21.025,46.96,46.96,46.96h121.389       c25.935,0,46.96-21.025,46.96-46.96c0-0.069-0.005-0.136-0.005-0.205H450.267z" />
				</g>
				<g>
					<g>
						<path style="fill:#FF9220;" d="M662.484,313.401c0,25.935-21.025,46.96-46.96,46.96H494.135        c-25.936,0-46.96-21.025-46.96-46.96l0,0c0-25.935,21.025-46.96,46.96-46.96h121.389        C641.459,266.441,662.484,287.466,662.484,313.401L662.484,313.401z" />
						<path style="fill:#EA781B;" d="M447.18,313.196c0,0.069-0.005,0.136-0.005,0.205c0,25.935,21.025,46.96,46.96,46.96h121.389        c25.935,0,46.96-21.025,46.96-46.96c0-0.069-0.005-0.136-0.005-0.205H447.18z" />
					</g>
				</g>
			</g>
			<circle style="fill:#EA781B;" cx="493.852" cy="313.248" r="36.771" />
		</g>
		<g>
			
				<ellipse transform="matrix(0.7071 -0.7071 0.7071 0.7071 -76.8538 440.9545)" style="fill:#FFFFFF;" cx="493.852" cy="313.248" rx="31.282" ry="31.282" />
			<g>
				<g style="opacity:0.15;">
					<path d="M509.53,298.366H483.79c-0.775,0-1.403,0.628-1.403,1.403v33.439c0,0.775,0.628,1.403,1.403,1.403h25.741       c0.775,0,1.403-0.628,1.403-1.403v-33.439C510.933,298.994,510.305,298.366,509.53,298.366z M492.143,330.987h-6.167v-6.235       h6.167V330.987z M492.143,323.57h-6.167v-6.235h6.167V323.57z M492.143,316.153h-6.167v-6.235h6.167V316.153z M499.743,330.987       h-6.167v-6.235h6.167V330.987z M499.743,323.57h-6.167v-6.235h6.167V323.57z M499.743,316.153h-6.167v-6.235h6.167V316.153z        M507.344,330.987h-6.167v-6.235h6.167V330.987z M507.344,323.57h-6.167v-6.235h6.167V323.57z M507.344,316.153h-6.167v-6.235       h6.167V316.153z M507.344,308.224h-21.368v-6.235h21.368V308.224z" />
				</g>
				<g>
					<path style="fill:#FF9220;" d="M506.443,295.279h-25.741c-0.775,0-1.403,0.628-1.403,1.403v33.439       c0,0.775,0.628,1.403,1.403,1.403h25.741c0.775,0,1.403-0.628,1.403-1.403v-33.439       C507.846,295.907,507.218,295.279,506.443,295.279z M489.055,327.9h-6.167v-6.235h6.167V327.9z M489.055,320.483h-6.167v-6.235       h6.167V320.483z M489.055,313.066h-6.167v-6.235h6.167V313.066z M496.656,327.9h-6.167v-6.235h6.167V327.9z M496.656,320.483       h-6.167v-6.235h6.167V320.483z M496.656,313.066h-6.167v-6.235h6.167V313.066z M504.257,327.9h-6.167v-6.235h6.167V327.9z        M504.257,320.483h-6.167v-6.235h6.167V320.483z M504.257,313.066h-6.167v-6.235h6.167V313.066z M504.257,305.137h-21.368       v-6.235h21.368V305.137z" />
				</g>
			</g>
		</g>
	</g>
	<g>
		
			<polyline style="fill:none;stroke:#005F98;stroke-width:7.3985;stroke-linecap:round;stroke-linejoin:round;stroke-miterlimit:10;" points="    365.791,272.802 365.791,314.806 290.955,314.806   " />
		<g>
			<g>
				<g style="opacity:0.15;">
					<path d="M305.913,313.717c0,25.936-21.025,46.96-46.96,46.96H137.564c-25.935,0-46.96-21.025-46.96-46.96l0,0       c0-25.935,21.025-46.96,46.96-46.96h121.389C284.888,266.757,305.913,287.782,305.913,313.717L305.913,313.717z" />
					<path d="M90.621,314.436c0.386,25.603,21.248,46.242,46.942,46.242h121.389c25.694,0,46.556-20.639,46.942-46.242H90.621z" />
				</g>
				<g>
					<g>
						<path style="fill:#005F98;" d="M302.825,310.63c0,25.935-21.025,46.96-46.96,46.96H134.476        c-25.936,0-46.96-21.025-46.96-46.96l0,0c0-25.936,21.025-46.96,46.96-46.96h121.389        C281.8,263.669,302.825,284.694,302.825,310.63L302.825,310.63z" />
						<path style="fill:#00537C;" d="M87.534,311.349c0.386,25.603,21.248,46.242,46.942,46.242h121.389        c25.694,0,46.556-20.639,46.942-46.242H87.534z" />
					</g>
				</g>
			</g>
			
				<ellipse transform="matrix(0.9651 -0.262 0.262 0.9651 -76.5465 46.1183)" style="fill:#00537C;" cx="134.708" cy="310.171" rx="36.771" ry="36.771" />
		</g>
		<g>
			
				<ellipse transform="matrix(0.974 -0.2267 0.2267 0.974 -66.8124 38.6166)" style="fill:#FFFFFF;" cx="134.708" cy="310.171" rx="31.282" ry="31.282" />
			<g>
				<g style="opacity:0.15;">
					<path d="M123.251,313.966v-1.738h2.956v1.738h21.59v-1.738h2.956v1.738h5.446v-7.402c0-1.571-1.273-2.844-2.844-2.844h-8.525       v-2.573c0-2.069-1.683-3.751-3.751-3.751h-8.154c-2.068,0-3.751,1.683-3.751,3.751v2.573h-8.525       c-1.571,0-2.844,1.273-2.844,2.844v7.402H123.251z M132.017,301.147c0-0.5,0.407-0.907,0.907-0.907h8.154       c0.5,0,0.907,0.407,0.907,0.907v2.573h-9.969V301.147z" />
					<path d="M150.752,314.914v1.738h-2.956v-1.738h-21.59v1.738h-2.956v-1.738h-5.446v9.707c0,1.571,1.273,2.844,2.844,2.844       h32.706c1.571,0,2.844-1.273,2.844-2.844v-9.707H150.752z" />
				</g>
				<g>
					<g>
						<path style="fill:#005F98;" d="M120.163,310.879v-1.738h2.955v1.738h21.59v-1.738h2.956v1.738h5.447v-7.402        c0-1.571-1.273-2.844-2.844-2.844h-8.525v-2.573c0-2.069-1.683-3.751-3.751-3.751h-8.154c-2.068,0-3.751,1.683-3.751,3.751        v2.573h-8.524c-1.571,0-2.844,1.273-2.844,2.844v7.402H120.163z M128.93,298.06c0-0.5,0.407-0.907,0.907-0.907h8.154        c0.5,0,0.907,0.407,0.907,0.907v2.573h-9.969V298.06z" />
						<path style="fill:#005F98;" d="M147.665,311.827v1.738h-2.956v-1.738h-21.59v1.738h-2.955v-1.738h-5.446v9.708        c0,1.571,1.273,2.844,2.844,2.844h32.706c1.571,0,2.844-1.273,2.844-2.844v-9.708H147.665z" />
					</g>
				</g>
			</g>
		</g>
	</g>
	<g>
		
			<line style="fill:none;stroke:#FF415E;stroke-width:7.3985;stroke-linecap:round;stroke-linejoin:round;stroke-miterlimit:10;" x1="374.755" y1="272.272" x2="375.245" y2="401.656" />
		<g>
			<g>
				<g style="opacity:0.15;">
					<path d="M485.742,425.041c0,25.935-21.025,46.96-46.96,46.96H317.393c-25.936,0-46.96-21.025-46.96-46.96l0,0       c0-25.936,21.025-46.96,46.96-46.96h121.389C464.717,378.08,485.742,399.105,485.742,425.041L485.742,425.041z" />
					<path d="M270.485,422.986c-0.029,0.682-0.052,1.365-0.052,2.055c0,25.935,21.025,46.96,46.96,46.96h121.389       c25.936,0,46.96-21.025,46.96-46.96c0-0.689-0.023-1.373-0.052-2.055H270.485z" />
				</g>
				<g>
					<g>
						<path style="fill:#FF415E;" d="M482.655,421.953c0,25.935-21.025,46.96-46.96,46.96H314.306        c-25.935,0-46.96-21.025-46.96-46.96l0,0c0-25.936,21.025-46.96,46.96-46.96h121.389        C461.63,374.993,482.655,396.018,482.655,421.953L482.655,421.953z" />
						<path style="fill:#BF365A;" d="M267.397,419.899c-0.029,0.682-0.052,1.366-0.052,2.055c0,25.935,21.025,46.96,46.96,46.96        h121.389c25.935,0,46.96-21.025,46.96-46.96c0-0.689-0.023-1.373-0.052-2.055H267.397z" />
					</g>
				</g>
			</g>
			<circle style="fill:#BF365A;" cx="313.182" cy="422.163" r="36.771" />
		</g>
		<g>
			<circle style="fill:#FFFFFF;" cx="313.182" cy="422.163" r="31.282" />
			<g>
				<g style="opacity:0.15;">
					<path d="M333.771,410.576c-2.116-2.116-4.917-3.273-7.907-3.273c-2.989,0-5.799,1.165-7.915,3.281l-1.105,1.105l-1.122-1.122       c-2.116-2.116-4.934-3.289-7.924-3.289c-2.981,0-5.791,1.165-7.898,3.272c-2.116,2.116-3.281,4.926-3.272,7.915       c0,2.99,1.174,5.791,3.289,7.907l16.088,16.088c0.223,0.223,0.523,0.343,0.814,0.343c0.292,0,0.592-0.112,0.814-0.334       l16.122-16.062c2.116-2.116,3.281-4.926,3.281-7.915C337.044,415.502,335.887,412.692,333.771,410.576L333.771,410.576z" />
				</g>
				<g>
					<path style="fill:#F14258;" d="M330.684,407.489c-2.116-2.116-4.917-3.273-7.907-3.273c-2.989,0-5.799,1.165-7.915,3.281       l-1.105,1.105l-1.122-1.122c-2.116-2.116-4.934-3.289-7.924-3.289c-2.981,0-5.791,1.165-7.898,3.272       c-2.116,2.116-3.281,4.926-3.272,7.916c0,2.99,1.174,5.791,3.289,7.907l16.088,16.088c0.223,0.223,0.523,0.343,0.814,0.343       c0.291,0,0.591-0.112,0.814-0.334l16.122-16.062c2.116-2.116,3.281-4.926,3.281-7.916       C333.956,412.414,332.8,409.604,330.684,407.489L330.684,407.489z" />
				</g>
			</g>
		</g>
	</g>
	<g>
		<g>
			<path style="fill:#004E65;" d="M375,105.228c44.941,0,81.503,36.562,81.503,81.503c0,44.941-36.562,81.503-81.503,81.503     s-81.503-36.562-81.503-81.503C293.497,141.79,330.059,105.228,375,105.228 M375,97.83c-49.099,0-88.901,39.802-88.901,88.901     c0,49.099,39.802,88.901,88.901,88.901s88.901-39.802,88.901-88.901C463.901,137.632,424.099,97.83,375,97.83L375,97.83z" />
		</g>
		<g>
			<g>
				<g>
					<g style="opacity:0.15;">
						<circle cx="377.774" cy="189.505" r="73.96" />
					</g>
					<g>
						<circle style="fill:#004E65;" cx="375" cy="186.731" r="73.96" />
					</g>
				</g>
				<g>
					<g style="opacity:0.15;">
						<circle cx="377.774" cy="189.505" r="58.754" />
					</g>
					<g>
						
							<ellipse transform="matrix(0.9834 -0.1815 0.1815 0.9834 -27.6596 71.1513)" style="fill:#FFFFFF;" cx="375" cy="186.731" rx="58.754" ry="58.754" />
					</g>
				</g>
			</g>
			<g>
				<g style="opacity:0.15;">
					<path d="M406.92,170.834c0,0-0.788,0.137-2.025,0.137c-1.392,0-3.353-0.173-5.401-0.911c-2.514-0.905-7.315-3.248-12.068-3.248       c-2.56,0-5.105,0.68-7.271,2.629c-6.189,5.57-15.471,15.007-15.471,15.007s-2.785,4.177,4.951,5.415       c0.483,0.077,0.962,0.114,1.434,0.114c7.085,0,12.867-8.159,16.204-8.159c3.558,0,23.052,20.886,23.052,20.886l18.101-12.377       l-12.222-24.754L406.92,170.834z" />
					<path d="M353.921,194.385c-0.777,0-1.516,0.335-2.026,0.92l-7.183,8.229c-0.472,0.542-0.705,1.234-0.656,1.95       c0.048,0.717,0.373,1.371,0.914,1.842c1.075,0.938,2.854,0.817,3.792-0.258l7.182-8.228c0.974-1.117,0.858-2.818-0.258-3.792       C355.197,194.62,354.57,194.385,353.921,194.385z" />
					<path d="M360.856,200.107c-0.777,0-1.516,0.335-2.027,0.921l-7.181,8.228c-0.472,0.541-0.706,1.233-0.657,1.949       c0.048,0.716,0.373,1.371,0.914,1.843c1.076,0.939,2.854,0.816,3.792-0.258l7.181-8.228c0.472-0.542,0.705-1.234,0.657-1.95       c-0.048-0.716-0.373-1.371-0.914-1.842C362.131,200.342,361.504,200.107,360.856,200.107z" />
					<path d="M368.689,207.01c-0.49-0.427-1.117-0.662-1.765-0.662c-0.777,0-1.516,0.335-2.026,0.92l-7.183,8.229       c-0.974,1.117-0.858,2.818,0.258,3.792c1.076,0.939,2.855,0.816,3.791-0.257l7.183-8.229       C369.92,209.685,369.805,207.984,368.689,207.01z" />
					<path d="M373.858,212.069c-0.777,0-1.516,0.335-2.026,0.919l-7.183,8.229c-0.472,0.541-0.705,1.233-0.656,1.949       c0.048,0.717,0.373,1.371,0.914,1.843c1.075,0.939,2.854,0.817,3.792-0.258l7.182-8.228c0.974-1.117,0.858-2.818-0.258-3.792       C375.134,212.304,374.507,212.069,373.858,212.069z" />
					<path d="M409.564,205.519l-1.05-1.125c-8.315-8.909-18.678-18.939-21.359-20.068c-0.747,0.233-2.442,1.532-3.589,2.411       c-3.322,2.547-7.457,5.716-12.498,5.716c-0.611,0-1.225-0.049-1.825-0.145c-3.768-0.603-6.158-2.008-7.106-4.175       c-1.111-2.541,0.32-4.807,0.486-5.057l0.13-0.195l0.165-0.167c0.35-0.355,7.966-8.09,13.989-13.657       c-1.69-1.014-4.357-1.928-8.356-1.626c-8.2,0.619-12.686,7.117-26.456-1.083l-12.686,24.445l13.618,10.454l6.778-7.765       c1.037-1.189,2.537-1.871,4.116-1.871c1.32,0,2.594,0.478,3.589,1.347c1.365,1.191,1.978,2.916,1.831,4.596       c0.488-0.141,0.996-0.221,1.514-0.221c1.32,0,2.594,0.478,3.589,1.347c1.099,0.959,1.759,2.289,1.858,3.745       c0.028,0.405,0,0.804-0.059,1.196c0.225-0.028,0.451-0.047,0.68-0.047c1.32,0,2.594,0.478,3.589,1.347       c1.365,1.192,1.978,2.917,1.831,4.596c0.488-0.141,0.996-0.221,1.514-0.221c1.32,0,2.594,0.478,3.589,1.347       c2.268,1.98,2.504,5.437,0.524,7.705l-5.083,5.824l2.471,1.897c0,0,3.404,2.475,6.343,0.619       c1.155-0.729,1.305-2.127,1.064-3.555c2.07,0.739,4.074,1.057,5.589,0.461c3.261-1.285,3.113-4.273,2.581-6.264       c2.326,1.372,4.916,2.294,7.012,1.468c5.106-2.011,1.857-8.2,1.857-8.2l-0.171-0.218c2.64,1.188,5.36,1.906,7.287,1.146       C410.044,210.293,410.038,207.503,409.564,205.519z" />
				</g>
				<g>
					<g>
						<path style="fill:#004E65;" d="M403.833,167.747c0,0-0.788,0.137-2.026,0.137c-1.392,0-3.353-0.173-5.401-0.911        c-2.514-0.905-7.315-3.248-12.068-3.248c-2.56,0-5.105,0.68-7.271,2.629c-6.189,5.57-15.471,15.007-15.471,15.007        s-2.785,4.177,4.951,5.415c0.483,0.077,0.962,0.114,1.434,0.114c7.085,0,12.867-8.159,16.204-8.159        c3.558,0,23.052,20.886,23.052,20.886l18.101-12.377l-12.222-24.754L403.833,167.747z" />
						<g>
							<path style="fill:#004E65;" d="M350.833,191.298c-0.777,0-1.516,0.335-2.026,0.92l-7.183,8.229         c-0.472,0.542-0.705,1.234-0.656,1.95c0.048,0.716,0.373,1.371,0.914,1.842c1.075,0.938,2.854,0.817,3.792-0.258l7.182-8.228         c0.974-1.117,0.858-2.818-0.258-3.792C352.109,191.533,351.482,191.298,350.833,191.298z" />
							<path style="fill:#004E65;" d="M357.768,197.019c-0.777,0-1.516,0.335-2.027,0.921l-7.181,8.228         c-0.472,0.541-0.706,1.233-0.657,1.949c0.048,0.717,0.373,1.371,0.914,1.843c1.076,0.939,2.854,0.816,3.792-0.258         l7.181-8.228c0.472-0.542,0.706-1.234,0.657-1.95c-0.048-0.717-0.373-1.371-0.914-1.842         C359.044,197.255,358.417,197.019,357.768,197.019z" />
							<path style="fill:#004E65;" d="M365.601,203.923c-0.489-0.427-1.116-0.662-1.765-0.662c-0.777,0-1.516,0.335-2.026,0.919         l-7.183,8.229c-0.974,1.117-0.858,2.818,0.258,3.792c1.076,0.939,2.855,0.816,3.791-0.257l7.183-8.229         C366.833,206.598,366.717,204.896,365.601,203.923z" />
							<path style="fill:#004E65;" d="M370.771,208.982c-0.777,0-1.516,0.335-2.026,0.92l-7.183,8.229         c-0.472,0.541-0.705,1.233-0.656,1.949c0.048,0.717,0.373,1.371,0.914,1.843c1.075,0.939,2.854,0.817,3.792-0.258         l7.182-8.228c0.974-1.117,0.858-2.818-0.258-3.792C372.047,209.217,371.42,208.982,370.771,208.982z" />
						</g>
						<path style="fill:#004E65;" d="M406.477,202.432l-1.05-1.125c-8.315-8.909-18.678-18.939-21.359-20.068        c-0.747,0.233-2.442,1.532-3.589,2.411c-3.322,2.547-7.457,5.716-12.498,5.716c-0.611,0-1.225-0.049-1.825-0.145        c-3.768-0.603-6.158-2.008-7.106-4.175c-1.11-2.541,0.32-4.807,0.486-5.057l0.13-0.195l0.165-0.167        c0.35-0.355,7.966-8.09,13.989-13.657c-1.691-1.014-4.357-1.928-8.356-1.626c-8.2,0.619-12.686,7.117-26.456-1.083        l-12.686,24.445l13.618,10.454l6.778-7.765c1.037-1.189,2.537-1.871,4.116-1.871c1.32,0,2.594,0.478,3.589,1.347        c1.365,1.191,1.978,2.916,1.831,4.596c0.488-0.141,0.996-0.221,1.514-0.221c1.32,0,2.594,0.478,3.589,1.347        c1.099,0.959,1.759,2.289,1.858,3.745c0.027,0.405,0,0.804-0.059,1.196c0.224-0.028,0.451-0.047,0.68-0.047        c1.32,0,2.594,0.478,3.589,1.347c1.365,1.192,1.978,2.917,1.831,4.596c0.488-0.141,0.996-0.221,1.514-0.221        c1.32,0,2.594,0.478,3.589,1.347c2.268,1.98,2.503,5.437,0.524,7.705l-5.083,5.824l2.471,1.897c0,0,3.404,2.475,6.343,0.619        c1.155-0.729,1.305-2.127,1.064-3.555c2.07,0.739,4.075,1.057,5.589,0.461c3.261-1.285,3.113-4.272,2.581-6.264        c2.326,1.372,4.916,2.294,7.012,1.468c5.106-2.011,1.857-8.2,1.857-8.2l-0.171-0.218c2.64,1.188,5.36,1.906,7.287,1.147        C406.957,207.206,406.95,204.415,406.477,202.432z" />
					</g>
				</g>
			</g>
		</g>
	</g>
	<g>
		<g style="opacity:0.15;">
			<path d="M512.994,47.688c0,9.865-7.997,17.862-17.862,17.862H261.172c-9.865,0-17.862-7.997-17.862-17.862l0,0     c0-9.865,7.997-17.862,17.862-17.862h233.959C504.997,29.826,512.994,37.823,512.994,47.688L512.994,47.688z" />
		</g>
		<g>
			<path style="fill:#004E65;" d="M509.842,44.536c0,9.865-7.997,17.862-17.862,17.862H258.02c-9.865,0-17.862-7.997-17.862-17.862     l0,0c0-9.865,7.997-17.862,17.862-17.862H491.98C501.845,26.674,509.842,34.671,509.842,44.536L509.842,44.536z" />
		</g>
	</g>
</g>
<g id="TEXTS">
	<rect x="571.644" y="155.47" style="fill:none;" width="119.365" height="72.132" />
	<rect x="537.559" y="284.093" style="fill:none;" width="119.365" height="72.132" />
	<rect x="359.118" y="389.234" style="fill:none;" width="119.365" height="72.132" />
	<rect x="177.9" y="280.329" style="fill:none;" width="119.365" height="72.132" />
	<rect x="137.426" y="156.846" style="fill:none;" width="119.365" height="72.132" />
	<g>
		<rect x="304.881" y="71.838" style="fill:none;" width="140.238" height="19.987" />
		
			<rect x="198.233" y="33.462" style="fill:none;" width="353.534" height="36.798" />
		<text x="328.73" y="81.19" font-size="12.6086" fill="#004E65" id="combined2" font-family="Arial"><tspan x="328.73" dy="0">WHAT WE DO</tspan></text><text x="266.25" y="53.73" font-size="27.3186" fill="#FFFFFF" id="combined1" font-family="Arial"><tspan x="266.25" dy="0">OUR SERVICES</tspan></text></g>
<text x="571.64" y="162.34" font-size="6.1747" fill="#000000" id="combined3" font-family="Arial"><tspan x="571.64" dy="0">PLACE YOUR TEXT Lorem ipsum dolor</tspan><tspan x="571.64" dy="7.40964">sit amet, consectetur adipiscing</tspan><tspan x="571.64" dy="7.40964">elit. Nam sed nulla nec ante</tspan><tspan x="571.64" dy="7.40964">convallis ultricies vitae ut justo.</tspan><tspan x="571.64" dy="7.40964">Nullam ac euismod sem.</tspan></text><text x="537.56" y="290.97" font-size="6.1747" fill="#000000" id="combined6" font-family="Arial"><tspan x="537.56" dy="0">PLACE YOUR TEXT Lorem ipsum dolor</tspan><tspan x="537.56" dy="7.40964">sit amet, consectetur adipiscing</tspan><tspan x="537.56" dy="7.40964">elit. Nam sed nulla nec ante</tspan><tspan x="537.56" dy="7.40964">convallis ultricies vitae ut justo.</tspan><tspan x="537.56" dy="7.40964">Nullam ac euismod sem.</tspan></text><text x="359.12" y="396.11" font-size="6.1747" fill="#000000" id="combined7" font-family="Arial"><tspan x="359.12" dy="0">PLACE YOUR TEXT Lorem ipsum dolor</tspan><tspan x="359.12" dy="7.40964">sit amet, consectetur adipiscing</tspan><tspan x="359.12" dy="7.40964">elit. Nam sed nulla nec ante</tspan><tspan x="359.12" dy="7.40964">convallis ultricies vitae ut justo.</tspan><tspan x="359.12" dy="7.40964">Nullam ac euismod sem.</tspan></text><text x="177.9" y="287.2" font-size="6.1747" fill="#000000" id="combined5" font-family="Arial"><tspan x="177.9" dy="0">PLACE YOUR TEXT Lorem ipsum dolor</tspan><tspan x="177.9" dy="7.40964">sit amet, consectetur adipiscing</tspan><tspan x="177.9" dy="7.40964">elit. Nam sed nulla nec ante</tspan><tspan x="177.9" dy="7.40964">convallis ultricies vitae ut justo.</tspan><tspan x="177.9" dy="7.40964">Nullam ac euismod sem.</tspan></text><text x="137.43" y="163.72" font-size="6.1747" fill="#000000" id="combined4" font-family="Arial"><tspan x="137.43" dy="0">PLACE YOUR TEXT Lorem ipsum dolor</tspan><tspan x="137.43" dy="7.40964">sit amet, consectetur adipiscing</tspan><tspan x="137.43" dy="7.40964">elit. Nam sed nulla nec ante</tspan><tspan x="137.43" dy="7.40964">convallis ultricies vitae ut justo.</tspan><tspan x="137.43" dy="7.40964">Nullam ac euismod sem.</tspan></text></g>
</svg>