<?xml version="1.0" encoding="utf-8"?>
<!-- Generator: Adobe Illustrator 27.5.0, SVG Export Plug-In . SVG Version: 6.00 Build 0)  -->
<svg version="1.1" xmlns="http://www.w3.org/2000/svg" xmlns:xlink="http://www.w3.org/1999/xlink" x="0px" y="0px"
	 viewBox="0 0 500 500" style="enable-background:new 0 0 500 500;" xml:space="preserve">
<g id="BACKGROUND">
	<rect style="fill:#2F3247;" width="500" height="500"/>
</g>
<g id="OBJECTS">
	<g>
		<g>
			<path style="fill:#97C64E;" d="M249.974,376.71c-2.209,0-4-1.791-4-4V163.245l-68.456-68.455c-1.562-1.563-1.562-4.095,0-5.657
				c1.563-1.562,4.095-1.562,5.657,0l70.799,70.799V372.71C253.974,374.919,252.183,376.71,249.974,376.71z"/>
		</g>
		<g>
			<path style="fill:#E4FF71;" d="M250.026,420.291c-2.209,0-4-1.791-4-4V203.512l70.799-70.799c1.561-1.562,4.096-1.562,5.656,0
				c1.563,1.563,1.563,4.095,0,5.657l-68.455,68.455v209.465C254.026,418.5,252.235,420.291,250.026,420.291z"/>
		</g>
		<g>
			<path style="fill:#97C64E;" d="M249.974,368.999c-2.209,0-4-1.791-4-4v-71.97l-68.456-68.455c-1.562-1.563-1.562-4.095,0-5.657
				c1.563-1.561,4.095-1.561,5.657,0l70.799,70.798v75.284C253.974,367.208,252.183,368.999,249.974,368.999z"/>
		</g>
		<g>
			<path style="fill:#E4FF71;" d="M250.026,415.581c-2.209,0-4-1.791-4-4v-75.284l70.799-70.798c1.561-1.563,4.096-1.563,5.656,0
				c1.563,1.562,1.563,4.095,0,5.656l-68.455,68.456v71.97C254.026,413.79,252.235,415.581,250.026,415.581z"/>
		</g>
		<g>
			<path style="fill:#97C64E;" d="M249.974,464.412c-2.209,0-4-1.791-4-4v-39.685l-68.456-68.456c-1.562-1.561-1.562-4.095,0-5.656
				c1.563-1.563,4.095-1.563,5.657,0l70.799,70.798v42.999C253.974,462.621,252.183,464.412,249.974,464.412z"/>
		</g>
		<path style="fill:#179989;" d="M329.069,468.116H170.931l0,0c0-7.344,5.953-13.297,13.297-13.297h131.543
			C323.115,454.819,329.069,460.772,329.069,468.116L329.069,468.116z"/>
	</g>
	<g>
		
			<ellipse transform="matrix(0.7071 -0.7071 0.7071 0.7071 -2.2186 265.7282)" style="fill:#9FC914;" cx="319.653" cy="135.542" rx="57.454" ry="57.454"/>
		<path style="fill:#5D9316;" d="M362.054,137.55h-74.479c-5.701,0-10.323-4.622-10.323-10.323l0,0h74.479
			C357.432,127.227,362.054,131.849,362.054,137.55L362.054,137.55z"/>
		
			<ellipse transform="matrix(0.916 -0.4012 0.4012 0.916 -42.6228 162.1734)" style="fill:#5D9316;" cx="365.949" cy="182.867" rx="28.94" ry="28.94"/>
		<g>
			<path style="fill:#E4FF71;" d="M365.949,205.104c-12.261,0-22.236-9.975-22.236-22.236c0-12.261,9.975-22.236,22.236-22.236
				c12.261,0,22.236,9.975,22.236,22.236C388.185,195.128,378.21,205.104,365.949,205.104z M365.949,161.456
				c-11.806,0-21.411,9.605-21.411,21.411c0,11.806,9.605,21.411,21.411,21.411c11.806,0,21.411-9.605,21.411-21.411
				C387.361,171.061,377.755,161.456,365.949,161.456z"/>
		</g>
		<path style="fill:#18656D;" d="M372.236,159.594L372.236,159.594c15.364,0,27.819-12.455,27.819-27.819v0
			C384.691,131.774,372.236,144.23,372.236,159.594z"/>
	</g>
	<path style="fill:#FFFFFF;" d="M319.487,90.872c-8.499,0.086-15.318,7.044-15.233,15.543c0.086,8.498,7.044,15.318,15.543,15.233
		c8.499-0.086,15.319-7.045,15.233-15.543C334.945,97.606,327.986,90.786,319.487,90.872z M332.938,106.126
		c0.015,1.519-0.237,2.975-0.692,4.339c-0.453-1.207-1.172-2.843-2.241-4.624c0.659-1.728,1.147-3.643,1.404-5.756
		C332.359,101.894,332.916,103.943,332.938,106.126z M329.904,97.815c-0.091,2.32-0.462,4.408-1.044,6.273
		c-1.877-2.649-4.541-5.395-8.256-7.388c2.36-1.328,4.371-1.976,5.219-2.213C327.397,95.315,328.782,96.452,329.904,97.815z
		 M325.398,113.281l3.114,2.868c-0.633,0.568-1.319,1.074-2.052,1.514c-1.644-0.294-3.144-0.716-4.517-1.239
		C323.094,115.546,324.273,114.509,325.398,113.281z M320.221,115.694c-4.524-2.166-7.443-5.454-9.31-8.54
		c0.782-1.768,1.74-3.306,2.797-4.639l10.507,9.677C322.916,113.62,321.534,114.773,320.221,115.694z M313.617,100.148l-3.47-3.196
		c0.457-0.467,0.959-0.888,1.48-1.284c2.056,0.244,3.906,0.701,5.57,1.315C315.991,97.864,314.772,98.913,313.617,100.148z
		 M312.514,101.415c-0.949,1.169-1.825,2.486-2.584,3.964c-1.149-2.301-1.726-4.322-1.985-5.434c0.326-0.602,0.703-1.17,1.115-1.712
		L312.514,101.415z M314.801,101.239c1.338-1.442,2.771-2.601,4.157-3.527c4.427,2.086,7.344,5.299,9.224,8.235
		c-0.787,1.897-1.784,3.54-2.888,4.955L314.801,101.239z M323.49,93.53c-1.248,0.49-2.877,1.239-4.629,2.331
		c-1.517-0.657-3.189-1.187-5.028-1.547c1.718-0.838,3.637-1.329,5.675-1.35C320.894,92.951,322.231,93.15,323.49,93.53z
		 M306.927,102.372c0.457,1.353,1.146,3.038,2.155,4.831c-0.599,1.466-1.073,3.079-1.4,4.836c-0.828-1.71-1.314-3.618-1.334-5.644
		C306.333,104.994,306.539,103.644,306.927,102.372z M309.049,114.272c0.209-1.929,0.601-3.684,1.138-5.271
		c1.881,2.805,4.587,5.659,8.433,7.732c-1.686,1.005-3.112,1.598-3.88,1.883C312.466,117.712,310.507,116.195,309.049,114.272z
		 M317.243,119.334c0.89-0.437,1.95-1.021,3.086-1.767c1.122,0.492,2.333,0.916,3.634,1.261c-1.315,0.452-2.72,0.713-4.186,0.728
		C318.91,119.564,318.065,119.484,317.243,119.334z M329.688,114.95l-3.204-2.951c1.006-1.263,1.934-2.694,2.718-4.308
		c1.328,2.487,1.893,4.514,2.032,5.065C330.793,113.54,330.274,114.273,329.688,114.95z"/>
	<g>
		<circle style="fill:#179989;" cx="180.347" cy="91.961" r="57.454"/>
		<path style="fill:#18656D;" d="M137.946,93.969h74.479c5.701,0,10.323-4.622,10.323-10.323l0,0h-74.479
			C142.568,83.646,137.946,88.267,137.946,93.969L137.946,93.969z"/>
		
			<ellipse transform="matrix(0.9851 -0.1722 0.1722 0.9851 -21.9883 25.1719)" style="fill:#18656D;" cx="134.051" cy="139.286" rx="28.94" ry="28.94"/>
		<g>
			<path style="fill:#E4FF71;" d="M111.815,139.286c0-12.261,9.975-22.236,22.236-22.236c12.261,0,22.236,9.975,22.236,22.236
				c0,12.261-9.975,22.236-22.236,22.236C121.79,161.522,111.815,151.547,111.815,139.286z M112.64,139.286
				c0,11.806,9.605,21.411,21.411,21.411c11.806,0,21.411-9.605,21.411-21.411c0-11.806-9.605-21.411-21.411-21.411
				C122.245,117.875,112.64,127.48,112.64,139.286z"/>
		</g>
		<path style="fill:#E4FF71;" d="M127.764,116.012L127.764,116.012c-15.364,0-27.819-12.455-27.819-27.819v0
			C115.309,88.193,127.764,100.648,127.764,116.012z"/>
	</g>
	<g>
		
			<ellipse transform="matrix(1 -0.0034 0.0034 1 -0.7639 0.6235)" style="fill:#9FC914;" cx="180.347" cy="221.746" rx="57.454" ry="57.454"/>
		<path style="fill:#5D9316;" d="M137.946,223.753h74.479c5.701,0,10.323-4.622,10.323-10.323l0,0h-74.479
			C142.568,213.43,137.946,218.052,137.946,223.753L137.946,223.753z"/>
		<circle style="fill:#5D9316;" cx="134.051" cy="269.071" r="28.94"/>
		<g>
			<path style="fill:#E4FF71;" d="M111.815,269.071c0-12.261,9.975-22.236,22.236-22.236c12.261,0,22.236,9.975,22.236,22.236
				c0,12.261-9.975,22.236-22.236,22.236C121.79,291.307,111.815,281.332,111.815,269.071z M112.64,269.071
				c0,11.806,9.605,21.411,21.411,21.411c11.806,0,21.411-9.605,21.411-21.411c0-11.806-9.605-21.411-21.411-21.411
				C122.245,247.66,112.64,257.264,112.64,269.071z"/>
		</g>
		<path style="fill:#18656D;" d="M127.764,245.797L127.764,245.797c-15.364,0-27.819-12.455-27.819-27.819v0
			C115.309,217.978,127.764,230.433,127.764,245.797z"/>
	</g>
	<g>
		<g>
			
				<ellipse transform="matrix(0.9705 -0.2413 0.2413 0.9705 -78.9782 53.8318)" style="fill:#179989;" cx="180.347" cy="349.444" rx="57.454" ry="57.454"/>
		</g>
		<path style="fill:#18656D;" d="M137.946,351.452h74.479c5.701,0,10.323-4.622,10.323-10.323l0,0h-74.479
			C142.568,341.129,137.946,345.75,137.946,351.452L137.946,351.452z"/>
		
			<ellipse transform="matrix(0.3827 -0.9239 0.9239 0.3827 -283.8153 368.7787)" style="fill:#18656D;" cx="134.051" cy="396.769" rx="28.94" ry="28.94"/>
		<g>
			<path style="fill:#E4FF71;" d="M111.815,396.769c0-12.261,9.975-22.236,22.236-22.236c12.261,0,22.236,9.975,22.236,22.236
				c0,12.261-9.975,22.236-22.236,22.236C121.79,419.005,111.815,409.03,111.815,396.769z M112.64,396.769
				c0,11.806,9.605,21.411,21.411,21.411c11.806,0,21.411-9.605,21.411-21.411c0-11.806-9.605-21.411-21.411-21.411
				C122.245,375.358,112.64,384.963,112.64,396.769z"/>
		</g>
		<path style="fill:#E4FF71;" d="M127.764,373.495L127.764,373.495c-15.364,0-27.819-12.455-27.819-27.819v0
			C115.309,345.676,127.764,358.131,127.764,373.495z"/>
	</g>
	<g>
		<polygon style="fill:#FFFFFF;" points="163.067,183.005 163.067,186.985 180.357,193.38 197.647,186.985 197.647,183.005 		"/>
		<path style="fill:#FFFFFF;" d="M184.97,194.872L184.97,194.872l-4.613,1.706l-4.612-1.706l0,0l-1.466-0.542l0,0l-11.212-4.147
			v16.082v0.902h1.128h32.324h1.128v-0.902v-16.082l-11.333,4.192L184.97,194.872z M164.506,192.249l8.703,3.219l-8.703,9.265
			V192.249z M165.547,205.728l9.128-9.717l5.183,1.917l0.499,0.185l0.499-0.185l5.183-1.917l9.128,9.717H165.547z M196.208,204.733
			l-8.703-9.265l8.703-3.219V204.733z"/>
	</g>
	<path style="fill:#FFFFFF;" d="M163.773,319.913c0,8.75,7.093,15.843,15.843,15.843c2.689,0,5.219-0.675,7.438-1.857l4.259,1.857
		l-0.923-4.25c3.111-2.893,5.069-7.009,5.069-11.593c0-8.75-7.093-15.843-15.843-15.843
		C170.866,304.07,163.773,311.163,163.773,319.913z M184.108,319.913c0-1.158,0.939-2.097,2.097-2.097
		c1.158,0,2.097,0.939,2.097,2.097c0,1.158-0.939,2.097-2.097,2.097C185.048,322.01,184.108,321.071,184.108,319.913z
		 M177.519,319.913c0-1.158,0.939-2.097,2.097-2.097c1.158,0,2.097,0.939,2.097,2.097c0,1.158-0.939,2.097-2.097,2.097
		C178.458,322.01,177.519,321.071,177.519,319.913z M170.93,319.913c0-1.158,0.939-2.097,2.097-2.097
		c1.158,0,2.097,0.939,2.097,2.097c0,1.158-0.939,2.097-2.097,2.097C171.868,322.01,170.93,321.071,170.93,319.913z"/>
	<g>
		<path style="fill:#FFFFFF;" d="M177.64,64.958h-2.019l1.427-1.427c0.736-0.736,0.736-1.928,0-2.664l-0.652-0.652
			c-0.735-0.736-1.928-0.736-2.664,0l-1.427,1.427v-2.019c0-1.04-0.843-1.884-1.884-1.884h-0.923c-1.04,0-1.884,0.844-1.884,1.884
			v2.019l-1.427-1.427c-0.736-0.736-1.928-0.736-2.664,0l-0.652,0.652c-0.735,0.736-0.735,1.928,0,2.664l1.427,1.427h-2.018
			c-1.04,0-1.884,0.843-1.884,1.884v0.922c0,1.04,0.843,1.884,1.884,1.884h2.019l-1.427,1.427c-0.735,0.735-0.735,1.928,0,2.664
			l0.652,0.652c0.736,0.736,1.928,0.736,2.664,0l1.427-1.427v2.018c0,1.041,0.843,1.884,1.884,1.884h0.923
			c1.04,0,1.884-0.843,1.884-1.884v-2.018l1.427,1.427c0.736,0.736,1.928,0.736,2.664,0l0.652-0.652
			c0.736-0.736,0.736-1.929,0-2.664l-1.427-1.427h2.019c1.04,0,1.883-0.843,1.883-1.884v-0.922
			C179.523,65.801,178.68,64.958,177.64,64.958z M173.017,67.303c0,1.688-1.369,3.057-3.057,3.057c-1.688,0-3.057-1.369-3.057-3.057
			s1.369-3.057,3.057-3.057C171.648,64.245,173.017,65.614,173.017,67.303z"/>
		<path style="fill:#FFFFFF;" d="M197.521,67.814l-2.403,0.261c-0.231-0.715-0.597-1.362-1.059-1.923l1.519-1.889
			c0.416-0.516,0.334-1.272-0.183-1.687c-0.517-0.415-1.272-0.333-1.687,0.183l-1.52,1.888c-0.647-0.331-1.357-0.55-2.105-0.622
			l-0.26-2.404c-0.072-0.659-0.663-1.135-1.322-1.064c-0.659,0.071-1.135,0.663-1.064,1.322l0.26,2.404
			c-0.715,0.231-1.362,0.597-1.923,1.059l-1.889-1.519c-0.516-0.416-1.272-0.334-1.687,0.182c-0.415,0.517-0.333,1.272,0.183,1.687
			l1.889,1.52c-0.331,0.647-0.55,1.357-0.622,2.105l-2.403,0.261c-0.659,0.071-1.135,0.663-1.064,1.322
			c0.071,0.659,0.663,1.135,1.322,1.064l2.403-0.26c0.231,0.715,0.597,1.362,1.059,1.923l-1.519,1.889
			c-0.415,0.517-0.334,1.272,0.183,1.687c0.517,0.416,1.272,0.334,1.687-0.183l1.519-1.889c0.647,0.331,1.357,0.55,2.105,0.622
			l0.26,2.404c0.072,0.658,0.663,1.135,1.322,1.063c0.659-0.071,1.135-0.663,1.064-1.322l-0.26-2.403
			c0.715-0.231,1.362-0.597,1.923-1.059l1.889,1.519c0.516,0.415,1.271,0.333,1.687-0.183c0.415-0.517,0.333-1.272-0.183-1.687
			l-1.889-1.519c0.331-0.647,0.55-1.357,0.622-2.105l2.403-0.26c0.659-0.072,1.135-0.664,1.064-1.322
			C198.771,68.218,198.18,67.743,197.521,67.814z M189.864,73.134c-1.792,0.194-3.403-1.101-3.597-2.893
			c-0.194-1.792,1.101-3.403,2.893-3.597c1.792-0.194,3.403,1.101,3.597,2.894C192.951,71.329,191.656,72.94,189.864,73.134z"/>
		<path style="fill:#FFFFFF;" d="M182.346,55.615c0.511,0.222,1.105-0.011,1.328-0.522c0.222-0.511-0.012-1.105-0.522-1.327
			c-0.511-0.222-1.105,0.011-1.328,0.522C181.601,54.798,181.835,55.393,182.346,55.615z"/>
		<path style="fill:#FFFFFF;" d="M180.926,61.402l0.812-1.863c0.618,0.13,1.243,0.132,1.845,0.028l0.746,1.896
			c0.204,0.519,0.79,0.774,1.308,0.57c0.519-0.204,0.773-0.789,0.57-1.308l-0.746-1.897c0.511-0.334,0.967-0.762,1.332-1.278
			l1.864,0.811c0.511,0.223,1.105-0.011,1.327-0.522c0.223-0.511-0.011-1.105-0.522-1.328l-1.864-0.812
			c0.13-0.618,0.132-1.243,0.028-1.845l1.896-0.746c0.518-0.204,0.773-0.789,0.569-1.308c-0.204-0.519-0.789-0.774-1.308-0.569
			l-1.897,0.746c-0.334-0.512-0.762-0.967-1.278-1.332l0.812-1.863c0.222-0.511-0.011-1.105-0.522-1.328
			c-0.511-0.223-1.105,0.011-1.328,0.522l-0.812,1.863c-0.618-0.13-1.243-0.132-1.845-0.028l-0.746-1.896
			c-0.204-0.519-0.79-0.774-1.308-0.57c-0.519,0.204-0.773,0.79-0.57,1.308l0.746,1.896c-0.511,0.334-0.967,0.762-1.332,1.278
			l-1.863-0.812c-0.511-0.222-1.105,0.011-1.327,0.522c-0.223,0.511,0.011,1.105,0.522,1.328l1.863,0.812
			c-0.13,0.618-0.132,1.243-0.028,1.846l-1.897,0.746c-0.518,0.204-0.773,0.789-0.57,1.308c0.204,0.519,0.789,0.774,1.308,0.57
			l1.897-0.746c0.334,0.511,0.762,0.967,1.278,1.332l-0.812,1.863c-0.222,0.511,0.011,1.105,0.522,1.328
			C180.109,62.147,180.703,61.913,180.926,61.402z M179.212,53.15c0.851-1.953,3.124-2.847,5.077-1.996
			c1.953,0.851,2.847,3.123,1.996,5.077c-0.851,1.953-3.124,2.847-5.077,1.996C179.255,57.376,178.362,55.103,179.212,53.15z"/>
	</g>
	<g>
		
			<ellipse transform="matrix(1 -0.0065 0.0065 1 -1.717 2.0747)" style="fill:#179989;" cx="318.917" cy="265.686" rx="57.454" ry="57.454"/>
		<g>
			<path style="fill:#FFFFFF;" d="M318.917,220.76c-8.75,0-15.843,7.093-15.843,15.843c0,8.75,7.093,15.843,15.843,15.843
				c8.75,0,15.843-7.093,15.843-15.843C334.76,227.853,327.667,220.76,318.917,220.76z M318.917,250.292
				c-7.56,0-13.688-6.129-13.688-13.689c0-7.56,6.129-13.689,13.688-13.689c7.561,0,13.689,6.128,13.689,13.689
				C332.606,244.163,326.478,250.292,318.917,250.292z"/>
			<path style="fill:#FFFFFF;" d="M318.917,227.515L318.917,227.515c0.642,0,1.162-0.52,1.162-1.162v-0.977
				c0-0.642-0.52-1.162-1.162-1.162h0c-0.642,0-1.162,0.52-1.162,1.162v0.977C317.755,226.995,318.276,227.515,318.917,227.515z"/>
			<path style="fill:#FFFFFF;" d="M318.917,245.691L318.917,245.691c-0.642,0-1.162,0.52-1.162,1.162v0.977
				c0,0.642,0.52,1.162,1.162,1.162h0c0.642,0,1.162-0.52,1.162-1.162v-0.977C320.079,246.211,319.559,245.691,318.917,245.691z"/>
			<path style="fill:#FFFFFF;" d="M330.143,235.441h-0.977c-0.642,0-1.162,0.52-1.162,1.162v0c0,0.642,0.52,1.162,1.162,1.162h0.977
				c0.642,0,1.162-0.52,1.162-1.162v0C331.305,235.961,330.785,235.441,330.143,235.441z"/>
			<path style="fill:#FFFFFF;" d="M308.668,235.441h-0.977c-0.642,0-1.162,0.52-1.162,1.162v0c0,0.642,0.52,1.162,1.162,1.162h0.977
				c0.642,0,1.162-0.52,1.162-1.162v0C309.829,235.961,309.31,235.441,308.668,235.441z"/>
			<path style="fill:#FFFFFF;" d="M324.655,229.995l-5.478,5.478c-0.084-0.019-0.17-0.032-0.26-0.032
				c-0.642,0-1.162,0.52-1.162,1.162c0,0.397,0.2,0.746,0.503,0.956v5.343c0,0.362,0.296,0.659,0.659,0.659h0
				c0.362,0,0.658-0.296,0.658-0.659v-5.343c0.304-0.21,0.503-0.559,0.503-0.956c0-0.053-0.009-0.103-0.015-0.154l5.523-5.523
				c0.256-0.256,0.256-0.675,0-0.931C325.331,229.738,324.911,229.738,324.655,229.995z"/>
		</g>
		<path style="fill:#18656D;" d="M361.318,267.694h-74.479c-5.701,0-10.323-4.622-10.323-10.323l0,0h74.479
			C356.696,257.371,361.318,261.992,361.318,267.694L361.318,267.694z"/>
		<circle style="fill:#18656D;" cx="365.214" cy="313.011" r="28.94"/>
		<g>
			<path style="fill:#E4FF71;" d="M365.214,335.247c-12.261,0-22.236-9.975-22.236-22.236c0-12.261,9.975-22.236,22.236-22.236
				c12.261,0,22.236,9.975,22.236,22.236C387.45,325.272,377.475,335.247,365.214,335.247z M365.214,291.6
				c-11.806,0-21.411,9.605-21.411,21.411c0,11.806,9.605,21.411,21.411,21.411c11.806,0,21.411-9.605,21.411-21.411
				C386.625,301.205,377.02,291.6,365.214,291.6z"/>
		</g>
		<path style="fill:#E4FF71;" d="M371.5,289.737L371.5,289.737c15.364,0,27.819-12.455,27.819-27.819v0
			C383.955,261.918,371.5,274.373,371.5,289.737z"/>
	</g>
</g>
<g id="TEXTS">
	<g>
		<text transform="matrix(1 0 0 1 297.0013 135.3181)" style="fill:#FFFFFF; font-family:'Lato-Black'; font-size:8.248px;">KART NELA</text>
		<rect x="292.227" y="140.766" style="fill:none;" width="54.832" height="22.125"/>
		<text transform="matrix(1 0 0 1 292.226 144.7536)"><tspan x="0" y="0" style="fill:#FFFFFF; font-family:'Lato-Regular'; font-size:5.411px;">Lorem</tspan><tspan x="15.248" y="0" style="fill:#FFFFFF; font-family:'Lato-Regular'; font-size:5.411px; letter-spacing:1;"> </tspan><tspan x="17.599" y="0" style="fill:#FFFFFF; font-family:'Lato-Regular'; font-size:5.411px;">ipsum</tspan><tspan x="31.771" y="0" style="fill:#FFFFFF; font-family:'Lato-Regular'; font-size:5.411px; letter-spacing:1;"> </tspan><tspan x="34.12" y="0" style="fill:#FFFFFF; font-family:'Lato-Regular'; font-size:5.411px;">dolor</tspan><tspan x="46.728" y="0" style="fill:#FFFFFF; font-family:'Lato-Regular'; font-size:5.411px; letter-spacing:1;"> </tspan><tspan x="49.078" y="0" style="fill:#FFFFFF; font-family:'Lato-Regular'; font-size:5.411px;">sit </tspan><tspan x="0" y="5.411" style="fill:#FFFFFF; font-family:'Lato-Regular'; font-size:5.411px;">amet,</tspan><tspan x="13.187" y="5.411" style="fill:#FFFFFF; font-family:'Lato-Regular'; font-size:5.411px;"> </tspan><tspan x="14.127" y="5.411" style="fill:#FFFFFF; font-family:'Lato-Regular'; font-size:5.411px;">neli</tspan><tspan x="22.74" y="5.411" style="fill:#FFFFFF; font-family:'Lato-Regular'; font-size:5.411px;"> </tspan><tspan x="23.68" y="5.411" style="fill:#FFFFFF; font-family:'Lato-Regular'; font-size:5.411px;">consectetuer </tspan><tspan x="0.897" y="10.822" style="fill:#FFFFFF; font-family:'Lato-Regular'; font-size:5.411px;">adipiscing elit, sed mar</tspan><tspan x="9.446" y="16.233" style="fill:#FFFFFF; font-family:'Lato-Regular'; font-size:5.411px;">lor mius marea. </tspan></text>
	</g>
	<text transform="matrix(1 0 0 1 353.6771 197.5759)" style="fill:#FFFFFF; font-family:'Outfit-Black'; font-size:38.3433px;">2</text>
	<g>
		<text transform="matrix(1 0 0 1 152.1028 91.7365)" style="fill:#FFFFFF; font-family:'Lato-Black'; font-size:8.248px;">LOREM IPSUM</text>
		<rect x="152.941" y="97.185" style="fill:none;" width="54.832" height="22.125"/>
		<text transform="matrix(1 0 0 1 152.9417 101.1721)"><tspan x="0" y="0" style="fill:#FFFFFF; font-family:'Lato-Regular'; font-size:5.411px;">Lorem</tspan><tspan x="15.248" y="0" style="fill:#FFFFFF; font-family:'Lato-Regular'; font-size:5.411px; letter-spacing:1;"> </tspan><tspan x="17.599" y="0" style="fill:#FFFFFF; font-family:'Lato-Regular'; font-size:5.411px;">ipsum</tspan><tspan x="31.77" y="0" style="fill:#FFFFFF; font-family:'Lato-Regular'; font-size:5.411px; letter-spacing:1;"> </tspan><tspan x="34.122" y="0" style="fill:#FFFFFF; font-family:'Lato-Regular'; font-size:5.411px;">dolor</tspan><tspan x="46.729" y="0" style="fill:#FFFFFF; font-family:'Lato-Regular'; font-size:5.411px; letter-spacing:1;"> </tspan><tspan x="49.08" y="0" style="fill:#FFFFFF; font-family:'Lato-Regular'; font-size:5.411px;">sit </tspan><tspan x="0" y="5.411" style="fill:#FFFFFF; font-family:'Lato-Regular'; font-size:5.411px;">amet,</tspan><tspan x="13.186" y="5.411" style="fill:#FFFFFF; font-family:'Lato-Regular'; font-size:5.411px;"> </tspan><tspan x="14.126" y="5.411" style="fill:#FFFFFF; font-family:'Lato-Regular'; font-size:5.411px;">neli</tspan><tspan x="22.74" y="5.411" style="fill:#FFFFFF; font-family:'Lato-Regular'; font-size:5.411px;"> </tspan><tspan x="23.681" y="5.411" style="fill:#FFFFFF; font-family:'Lato-Regular'; font-size:5.411px;">consectetuer </tspan><tspan x="0.897" y="10.822" style="fill:#FFFFFF; font-family:'Lato-Regular'; font-size:5.411px;">adipiscing elit, sed mar</tspan><tspan x="9.446" y="16.233" style="fill:#FFFFFF; font-family:'Lato-Regular'; font-size:5.411px;">lor mius marea. </tspan></text>
	</g>
	<text transform="matrix(1 0 0 1 127.3821 153.9944)" style="fill:#FFFFFF; font-family:'Outfit-Black'; font-size:38.3433px;">1</text>
	<g>
		<text transform="matrix(1 0 0 1 159.2205 221.522)" style="fill:#FFFFFF; font-family:'Lato-Black'; font-size:8.248px;">SED AMAR</text>
		<rect x="152.941" y="226.969" style="fill:none;" width="54.832" height="22.125"/>
		<text transform="matrix(1 0 0 1 152.9417 230.9571)"><tspan x="0" y="0" style="fill:#FFFFFF; font-family:'Lato-Regular'; font-size:5.411px;">Lorem</tspan><tspan x="15.248" y="0" style="fill:#FFFFFF; font-family:'Lato-Regular'; font-size:5.411px; letter-spacing:1;"> </tspan><tspan x="17.599" y="0" style="fill:#FFFFFF; font-family:'Lato-Regular'; font-size:5.411px;">ipsum</tspan><tspan x="31.77" y="0" style="fill:#FFFFFF; font-family:'Lato-Regular'; font-size:5.411px; letter-spacing:1;"> </tspan><tspan x="34.122" y="0" style="fill:#FFFFFF; font-family:'Lato-Regular'; font-size:5.411px;">dolor</tspan><tspan x="46.729" y="0" style="fill:#FFFFFF; font-family:'Lato-Regular'; font-size:5.411px; letter-spacing:1;"> </tspan><tspan x="49.08" y="0" style="fill:#FFFFFF; font-family:'Lato-Regular'; font-size:5.411px;">sit </tspan><tspan x="0" y="5.411" style="fill:#FFFFFF; font-family:'Lato-Regular'; font-size:5.411px;">amet,</tspan><tspan x="13.186" y="5.411" style="fill:#FFFFFF; font-family:'Lato-Regular'; font-size:5.411px;"> </tspan><tspan x="14.126" y="5.411" style="fill:#FFFFFF; font-family:'Lato-Regular'; font-size:5.411px;">neli</tspan><tspan x="22.74" y="5.411" style="fill:#FFFFFF; font-family:'Lato-Regular'; font-size:5.411px;"> </tspan><tspan x="23.681" y="5.411" style="fill:#FFFFFF; font-family:'Lato-Regular'; font-size:5.411px;">consectetuer </tspan><tspan x="0.897" y="10.822" style="fill:#FFFFFF; font-family:'Lato-Regular'; font-size:5.411px;">adipiscing elit, sed mar</tspan><tspan x="9.446" y="16.233" style="fill:#FFFFFF; font-family:'Lato-Regular'; font-size:5.411px;">lor mius marea. </tspan></text>
	</g>
	<text transform="matrix(1 0 0 1 123.9886 283.7793)" style="fill:#FFFFFF; font-family:'Outfit-Black'; font-size:38.3433px;">3</text>
	<g>
		<text transform="matrix(1 0 0 1 159.9095 349.22)" style="fill:#FFFFFF; font-family:'Lato-Black'; font-size:8.248px;">ELIT ADIPI</text>
		<rect x="152.941" y="354.668" style="fill:none;" width="54.832" height="22.125"/>
		<text transform="matrix(1 0 0 1 152.9417 358.6555)"><tspan x="0" y="0" style="fill:#FFFFFF; font-family:'Lato-Regular'; font-size:5.411px;">Lorem</tspan><tspan x="15.248" y="0" style="fill:#FFFFFF; font-family:'Lato-Regular'; font-size:5.411px; letter-spacing:1;"> </tspan><tspan x="17.599" y="0" style="fill:#FFFFFF; font-family:'Lato-Regular'; font-size:5.411px;">ipsum</tspan><tspan x="31.77" y="0" style="fill:#FFFFFF; font-family:'Lato-Regular'; font-size:5.411px; letter-spacing:1;"> </tspan><tspan x="34.122" y="0" style="fill:#FFFFFF; font-family:'Lato-Regular'; font-size:5.411px;">dolor</tspan><tspan x="46.729" y="0" style="fill:#FFFFFF; font-family:'Lato-Regular'; font-size:5.411px; letter-spacing:1;"> </tspan><tspan x="49.08" y="0" style="fill:#FFFFFF; font-family:'Lato-Regular'; font-size:5.411px;">sit </tspan><tspan x="0" y="5.411" style="fill:#FFFFFF; font-family:'Lato-Regular'; font-size:5.411px;">amet,</tspan><tspan x="13.186" y="5.411" style="fill:#FFFFFF; font-family:'Lato-Regular'; font-size:5.411px;"> </tspan><tspan x="14.126" y="5.411" style="fill:#FFFFFF; font-family:'Lato-Regular'; font-size:5.411px;">neli</tspan><tspan x="22.74" y="5.411" style="fill:#FFFFFF; font-family:'Lato-Regular'; font-size:5.411px;"> </tspan><tspan x="23.681" y="5.411" style="fill:#FFFFFF; font-family:'Lato-Regular'; font-size:5.411px;">consectetuer </tspan><tspan x="0.897" y="10.821" style="fill:#FFFFFF; font-family:'Lato-Regular'; font-size:5.411px;">adipiscing elit, sed mar</tspan><tspan x="9.446" y="16.232" style="fill:#FFFFFF; font-family:'Lato-Regular'; font-size:5.411px;">lor mius marea. </tspan></text>
	</g>
	<text transform="matrix(1 0 0 1 124.0462 411.4778)" style="fill:#FFFFFF; font-family:'Outfit-Black'; font-size:38.3433px;">5</text>
	<g>
		<text transform="matrix(1 0 0 1 292.6445 265.4625)" style="fill:#FFFFFF; font-family:'Lato-Black'; font-size:8.248px;">MIUS MAREA</text>
		<rect x="291.491" y="270.91" style="fill:none;" width="54.832" height="22.125"/>
		<text transform="matrix(1 0 0 1 291.4902 274.8981)"><tspan x="0" y="0" style="fill:#FFFFFF; font-family:'Lato-Regular'; font-size:5.411px;">Lorem</tspan><tspan x="15.248" y="0" style="fill:#FFFFFF; font-family:'Lato-Regular'; font-size:5.411px; letter-spacing:1;"> </tspan><tspan x="17.599" y="0" style="fill:#FFFFFF; font-family:'Lato-Regular'; font-size:5.411px;">ipsum</tspan><tspan x="31.771" y="0" style="fill:#FFFFFF; font-family:'Lato-Regular'; font-size:5.411px; letter-spacing:1;"> </tspan><tspan x="34.12" y="0" style="fill:#FFFFFF; font-family:'Lato-Regular'; font-size:5.411px;">dolor</tspan><tspan x="46.728" y="0" style="fill:#FFFFFF; font-family:'Lato-Regular'; font-size:5.411px; letter-spacing:1;"> </tspan><tspan x="49.078" y="0" style="fill:#FFFFFF; font-family:'Lato-Regular'; font-size:5.411px;">sit </tspan><tspan x="0" y="5.411" style="fill:#FFFFFF; font-family:'Lato-Regular'; font-size:5.411px;">amet,</tspan><tspan x="13.187" y="5.411" style="fill:#FFFFFF; font-family:'Lato-Regular'; font-size:5.411px;"> </tspan><tspan x="14.127" y="5.411" style="fill:#FFFFFF; font-family:'Lato-Regular'; font-size:5.411px;">neli</tspan><tspan x="22.74" y="5.411" style="fill:#FFFFFF; font-family:'Lato-Regular'; font-size:5.411px;"> </tspan><tspan x="23.68" y="5.411" style="fill:#FFFFFF; font-family:'Lato-Regular'; font-size:5.411px;">consectetuer </tspan><tspan x="0.897" y="10.821" style="fill:#FFFFFF; font-family:'Lato-Regular'; font-size:5.411px;">adipiscing elit, sed mar</tspan><tspan x="9.446" y="16.232" style="fill:#FFFFFF; font-family:'Lato-Regular'; font-size:5.411px;">lor mius marea. </tspan></text>
	</g>
	<text transform="matrix(1 0 0 1 352.3477 327.7194)" style="fill:#FFFFFF; font-family:'Outfit-Black'; font-size:38.3433px;">4</text>
</g>
</svg>
