<?xml version="1.0" encoding="utf-8"?>
<!-- Generator: Adobe Illustrator 27.5.0, SVG Export Plug-In . SVG Version: 6.00 Build 0)  -->
<svg version="1.1" xmlns="http://www.w3.org/2000/svg" xmlns:xlink="http://www.w3.org/1999/xlink" x="0px" y="0px"
	 viewBox="0 0 750 500" style="enable-background:new 0 0 750 500;" xml:space="preserve">
<g id="BACKGROUND">
	<rect style="fill:#FFFFFF;" width="750" height="500"/>
</g>
<g id="OBJECTS">
	<polygon style="fill:#FFE33E;" points="160.46,0 112.07,83.81 0.79,83.81 0,82.44 0,0 	"/>
	<polygon points="634.033,500 669.005,439.429 749.429,439.429 750,440.419 750,500 	"/>
	<g>
		<text transform="matrix(1 0 0 1 39.2313 51.0762)"><tspan x="0" y="0" style="font-family:'Poppins-Medium'; font-size:22.8489px; letter-spacing:4;">TIMELINE </tspan><tspan x="142.735" y="0" style="font-family:'Poppins-Light'; font-size:22.8489px; letter-spacing:4;">INFOGRAPHIC</tspan></text>
	</g>
	<g>
		<g>
			<polygon style="fill:#EAEAEA;" points="126.043,241.164 104.635,204.082 126.043,167.001 168.861,167.001 190.27,204.082 
				168.861,241.164 			"/>
		</g>
		<g>
			<polygon style="fill:#EAEAEA;" points="576.899,233.154 555.491,196.072 576.899,158.991 619.717,158.991 641.127,196.072 
				619.717,233.154 			"/>
		</g>
		<g>
			<polygon style="fill:#EAEAEA;" points="646.123,186.178 633.789,164.814 646.123,143.451 670.791,143.451 683.126,164.814 
				670.791,186.178 			"/>
		</g>
		<g>
			<polygon style="fill:#EAEAEA;" points="147.453,432.14 135.119,410.776 147.453,389.413 172.121,389.413 184.456,410.776 
				172.121,432.14 			"/>
		</g>
		<g>
			<polygon style="fill:#FFE33E;" points="95.664,380.32 57.983,315.054 95.664,249.788 171.026,249.788 208.709,315.054 
				171.026,380.32 			"/>
			<g>
				<g>
					<rect x="91.108" y="337.03" style="fill:none;" width="84.476" height="27.713"/>
					<text transform="matrix(1 0 0 1 92.021 341.486)"><tspan x="0" y="0" style="font-family:'Poppins-Light'; font-size:6.0212px;">Lorem ipsum dolor sit amet, </tspan><tspan x="1.4" y="7.957" style="font-family:'Poppins-Light'; font-size:6.0212px;">consectetur adipiscing elit, </tspan><tspan x="5.326" y="15.914" style="font-family:'Poppins-Light'; font-size:6.0212px;">sed do eiusmod tempor</tspan></text>
					<g>
						<text transform="matrix(1 0 0 1 96.3809 330.6061)" style="font-family:'Poppins-Bold'; font-size:10.9648px;">Lorem ipsum</text>
					</g>
				</g>
				<g>
					<g>
						<path d="M149.999,264.006l-4.161,2.081l-0.931-1.861l4.162-2.081L149.999,264.006z"/>
						<path d="M149.068,280.653l-4.161-2.081l0.931-1.861l4.161,2.081L149.068,280.653z"/>
						<path d="M146.412,270.358h4.231v2.081h-4.231V270.358z"/>
						<path d="M116.705,262.145l4.161,2.081l-0.931,1.861l-4.161-2.081L116.705,262.145z"/>
						<path d="M116.705,280.653l-0.931-1.861l4.161-2.081l0.931,1.861L116.705,280.653z"/>
						<path d="M115.131,270.358h4.231v2.081h-4.231V270.358z"/>
						<path d="M129.765,293.386h6.242v2.081h-6.242V293.386z"/>
						<path d="M144.331,271.399c0-6.31-5.134-11.444-11.444-11.444c-6.31,0-11.444,5.134-11.444,11.444
							c0,4.303,2.428,8.227,6.242,10.179v3.346h-2.081v2.081h2.081v4.3h10.404v-4.3h2.081v-2.081h-2.081v-3.346
							C141.902,279.625,144.331,275.702,144.331,271.399z M136.008,289.224h-6.242v-2.219h6.242V289.224z M131.846,273.48
							c0-0.574,0.467-1.04,1.04-1.04c0.574,0,1.041,0.467,1.041,1.04c0,0.573-0.467,1.04-1.041,1.04
							C132.313,274.52,131.846,274.053,131.846,273.48z M133.927,284.924v-8.502c1.211-0.43,2.081-1.586,2.081-2.942
							c0-1.721-1.4-3.121-3.121-3.121c-1.721,0-3.121,1.4-3.121,3.121c0,1.356,0.87,2.513,2.081,2.942v8.502h-2.081v-4.683
							l-0.622-0.273c-3.414-1.499-5.62-4.862-5.62-8.569c0-5.163,4.201-9.364,9.363-9.364c5.163,0,9.364,4.201,9.364,9.364
							c0,3.707-2.206,7.071-5.62,8.569l-0.622,0.273v4.683H133.927z"/>
					</g>
				</g>
				<text transform="matrix(1 0 0 1 94.5547 316.4704)" style="font-family:'Poppins-Bold'; font-size:16.1886px;">01.</text>
			</g>
		</g>
		<g>
			<polygon style="fill:#FFE33E;" points="215.459,308.556 177.779,243.29 215.459,178.024 290.821,178.024 328.504,243.29 
				290.821,308.556 			"/>
			<g>
				<g>
					<rect x="210.903" y="265.266" style="fill:none;" width="84.476" height="27.713"/>
					<text transform="matrix(1 0 0 1 211.8164 269.7214)"><tspan x="0" y="0" style="font-family:'Poppins-Light'; font-size:6.0212px;">Lorem ipsum dolor sit amet, </tspan><tspan x="1.4" y="7.958" style="font-family:'Poppins-Light'; font-size:6.0212px;">consectetur adipiscing elit, </tspan><tspan x="5.325" y="15.915" style="font-family:'Poppins-Light'; font-size:6.0212px;">sed do eiusmod tempor</tspan></text>
					<g>
						<text transform="matrix(1 0 0 1 216.1763 258.8425)" style="font-family:'Poppins-Bold'; font-size:10.9648px;">Lorem ipsum</text>
					</g>
				</g>
				<g>
					<g>
						<path d="M254.139,200.258c-2.94,0-5.331,2.392-5.331,5.332s2.392,5.331,5.331,5.331c2.94,0,5.332-2.392,5.332-5.331
							S257.079,200.258,254.139,200.258z M254.139,208.789c-1.764,0-3.199-1.435-3.199-3.199c0-1.764,1.435-3.199,3.199-3.199
							c1.764,0,3.199,1.435,3.199,3.199C257.338,207.354,255.903,208.789,254.139,208.789z"/>
						<path d="M254.139,207.098l-1.508-1.508l1.508-1.508l1.508,1.508L254.139,207.098z"/>
						<path d="M263.672,212.48c0.122-2.143,0.023-4.279-0.299-6.401c-0.81-5.332-3.003-10.412-6.517-15.098l-2.716-3.622
							l-2.716,3.622c-3.514,4.686-5.707,9.765-6.518,15.098c-0.323,2.121-0.421,4.258-0.299,6.401
							c-1.237,0.893-2.273,2.055-3.017,3.393c-0.859,1.544-1.313,3.295-1.313,5.064v2.859l2.214-1.623
							c1.108-0.735,2.364-1.228,3.672-1.449c0.404,1.258,0.702,1.977,1.107,3.075c0.704-0.471,2.394-2.558,5.803-2.967v2.958h2.133
							v-2.958c3.419,0.41,5.106,2.501,5.803,2.967c0.407-1.105,0.703-1.817,1.107-3.075c1.308,0.221,2.563,0.715,3.671,1.449
							l2.214,1.623v-2.859C268.002,217.587,266.392,214.442,263.672,212.48z M242.5,219.706c0.262-1.777,1.09-3.404,2.359-4.657
							c0.167,1.205,0.405,2.41,0.712,3.614C244.504,218.866,243.469,219.217,242.5,219.706z M260.005,220.318
							c-1.478-0.926-3.124-1.469-4.799-1.631v-5.561h-2.133v5.561c-1.675,0.162-3.321,0.705-4.799,1.631
							c-3.182-9.697-1.479-19.61,4.856-28.057l1.01-1.347l1.01,1.347C261.484,200.707,263.186,210.62,260.005,220.318z
							 M262.708,218.663c0.307-1.204,0.544-2.41,0.712-3.614c1.268,1.253,2.096,2.88,2.358,4.657
							C264.81,219.217,263.775,218.866,262.708,218.663z"/>
						<path d="M235.941,195.993h6.469v2.132h-6.469V195.993z"/>
						<path d="M265.869,195.993h6.469v2.132h-6.469V195.993z"/>
						<path d="M238.161,188.432l5.799,2.704l-0.901,1.933l-5.799-2.704L238.161,188.432z"/>
						<path d="M270.118,205.688l-5.799-2.704l0.901-1.933l5.799,2.704L270.118,205.688z"/>
						<path d="M237.259,203.754l5.798-2.704l0.901,1.933l-5.798,2.704L237.259,203.754z"/>
						<path d="M270.118,188.432l0.901,1.933l-5.799,2.704l-0.901-1.933L270.118,188.432z"/>
					</g>
				</g>
				<text transform="matrix(1 0 0 1 214.8687 245.506)" style="font-family:'Poppins-Bold'; font-size:16.1886px;">02.</text>
			</g>
		</g>
		<g>
			<polygon style="fill:#FFE33E;" points="337.332,377.522 299.651,312.255 337.332,246.989 412.693,246.989 450.376,312.255 
				412.693,377.522 			"/>
			<g>
				<g>
					<rect x="332.776" y="334.231" style="fill:none;" width="84.476" height="27.713"/>
					<text transform="matrix(1 0 0 1 333.6885 338.6872)"><tspan x="0" y="0" style="font-family:'Poppins-Light'; font-size:6.0212px;">Lorem ipsum dolor sit amet, </tspan><tspan x="1.4" y="7.957" style="font-family:'Poppins-Light'; font-size:6.0212px;">consectetur adipiscing elit, </tspan><tspan x="5.325" y="15.914" style="font-family:'Poppins-Light'; font-size:6.0212px;">sed do eiusmod tempor</tspan></text>
					<g>
						<text transform="matrix(1 0 0 1 338.0483 327.8083)" style="font-family:'Poppins-Bold'; font-size:10.9648px;">Lorem ipsum</text>
					</g>
				</g>
				<g>
					<path d="M392.781,293.138h-2.082v-15.253l2.082,2.082v-11.882h-11.882l3.733,3.733l-3.597,3.597l-8.057-5.992l-13.646,9.701
						v-19.436h-2.082v35.532h35.532V293.138z M371.892,277.866v15.272h-6.246v-10.832L371.892,277.866z M373.974,277.965
						l6.315,4.698v10.475h-6.315V277.965z M382.371,282.912l6.246-6.246v16.472h-6.246V282.912z M372.95,271.997l8.286,6.162
						l6.341-6.341l-1.651-1.651h4.774v4.773l-1.651-1.651l-7.623,7.623l-8.509-6.329l-13.585,9.658v-2.563L372.95,271.997z
						 M359.331,286.796l4.233-3.01v9.352h-4.233V286.796z"/>
				</g>
				<text transform="matrix(1 0 0 1 336.2798 315.8659)" style="font-family:'Poppins-Bold'; font-size:16.1886px;">03.</text>
			</g>
		</g>
		<g>
			<polygon style="fill:#FFE33E;" points="457.24,305.267 419.559,240.001 457.24,174.734 532.602,174.734 570.285,240.001 
				532.602,305.267 			"/>
			<g>
				<g>
					<rect x="452.684" y="261.976" style="fill:none;" width="84.476" height="27.713"/>
					<text transform="matrix(1 0 0 1 453.5967 266.4318)"><tspan x="0" y="0" style="font-family:'Poppins-Light'; font-size:6.0212px;">Lorem ipsum dolor sit amet, </tspan><tspan x="1.4" y="7.958" style="font-family:'Poppins-Light'; font-size:6.0212px;">consectetur adipiscing elit, </tspan><tspan x="5.326" y="15.915" style="font-family:'Poppins-Light'; font-size:6.0212px;">sed do eiusmod tempor</tspan></text>
					<g>
						<text transform="matrix(1 0 0 1 457.9561 255.5534)" style="font-family:'Poppins-Bold'; font-size:10.9648px;">Lorem ipsum</text>
					</g>
				</g>
				<g>
					<g>
						<path d="M506.9,194.411l1.823-1.823l1.643,1.643l1.643-1.643l-4.929-4.929l-1.643,1.643l1.643,1.643l-1.977,1.977
							c-2.004-1.449-4.279-2.445-6.695-2.933v-2.748h2.324v-2.324h-11.618v2.324h2.324v2.748c-2.416,0.488-4.691,1.484-6.695,2.933
							l-1.977-1.977l1.643-1.643l-1.643-1.643l-4.929,4.929l1.643,1.643l1.643-1.643l1.823,1.823
							c-3.427,3.247-5.449,7.729-5.449,12.658c0,9.652,7.817,17.504,17.426,17.504c9.609,0,17.426-7.852,17.426-17.504
							C512.35,202.378,510.499,197.822,506.9,194.411z M493.762,187.241h2.324v2.44c-0.385-0.025-0.773-0.039-1.162-0.039
							c-0.389,0-0.777,0.014-1.162,0.039V187.241z M494.923,222.249c-8.328,0-15.103-6.81-15.103-15.18
							c0-8.328,6.775-15.103,15.103-15.103c8.328,0,15.103,6.775,15.103,15.103C510.026,215.439,503.251,222.249,494.923,222.249z"
							/>
						<path d="M496.085,203.783v-9.494h-2.324v9.494c-1.352,0.48-2.324,1.771-2.324,3.286c0,1.922,1.563,3.485,3.485,3.485
							c1.922,0,3.485-1.564,3.485-3.485C498.409,205.554,497.438,204.263,496.085,203.783z M494.923,208.23
							c-0.641,0-1.162-0.521-1.162-1.162c0-0.641,0.521-1.162,1.162-1.162s1.162,0.521,1.162,1.162
							C496.085,207.709,495.564,208.23,494.923,208.23z"/>
						<path d="M493.762,217.525h2.324v2.324h-2.324V217.525z"/>
						<path d="M482.144,205.907h2.324v2.324h-2.324V205.907z"/>
						<path d="M505.379,205.907h2.324v2.324h-2.324V205.907z"/>
						<path d="M486.709,216.927l-1.643-1.643l1.643-1.643l1.643,1.643L486.709,216.927z"/>
						<path d="M503.138,200.497l-1.643-1.643l1.643-1.643l1.643,1.643L503.138,200.497z"/>
						<path d="M503.138,216.927l-1.643-1.643l1.643-1.643l1.643,1.643L503.138,216.927z"/>
						<path d="M486.709,200.497l-1.643-1.643l1.643-1.643l1.643,1.643L486.709,200.497z"/>
					</g>
				</g>
				<text transform="matrix(1 0 0 1 455.248 242.217)" style="font-family:'Poppins-Bold'; font-size:16.1886px;">04.</text>
			</g>
		</g>
		<g>
			<polygon style="fill:#FFE33E;" points="578.972,372.75 541.291,307.483 578.972,242.217 654.334,242.217 692.017,307.483 
				654.334,372.75 			"/>
			<g>
				<g>
					<rect x="574.416" y="329.459" style="fill:none;" width="84.476" height="27.713"/>
					<text transform="matrix(1 0 0 1 575.3291 333.9157)"><tspan x="0" y="0" style="font-family:'Poppins-Light'; font-size:6.0212px;">Lorem ipsum dolor sit amet, </tspan><tspan x="1.4" y="7.957" style="font-family:'Poppins-Light'; font-size:6.0212px;">consectetur adipiscing elit, </tspan><tspan x="5.326" y="15.914" style="font-family:'Poppins-Light'; font-size:6.0212px;">sed do eiusmod tempor</tspan></text>
					<g>
						<text transform="matrix(1 0 0 1 579.6885 323.0358)" style="font-family:'Poppins-Bold'; font-size:10.9648px;">Lorem ipsum</text>
					</g>
				</g>
				<g>
					<g>
						<path d="M614.488,265.92c0.627-0.589,1.019-1.424,1.019-2.35c0-1.226-0.688-2.294-1.697-2.839l2.337-4.829h-12.028
							l2.337,4.829c-1.01,0.545-1.697,1.613-1.697,2.839c0,0.926,0.393,1.762,1.02,2.35c-5.804,4.443-7.47,11.476-7.47,18.785v5.738
							h19.349v2.15h17.342c0-2.77,0-18.953,0-21.498h-16.023C617.821,269.054,616.319,267.322,614.488,265.92z M607.983,264.646
							c-0.593,0-1.075-0.482-1.075-1.075c0-0.593,0.482-1.075,1.075-1.075h4.3c0.593,0,1.075,0.482,1.075,1.075
							c0,0.593-0.482,1.075-1.075,1.075H607.983z M612.718,258.053l-1.11,2.293h-2.952l-1.11-2.293H612.718z M600.458,288.294
							v-3.588c0-8.756,2.561-14.619,7.827-17.91h3.694c2.519,1.572,4.379,3.678,5.677,6.422v15.076H600.458z M632.849,290.444
							h-13.042v-4.3h13.042V290.444z M619.807,283.994v-4.3h13.042v4.3H619.807z M632.849,273.245v4.3h-13.042v-4.3H632.849z"/>
						<path d="M610.133,276.47c0.593,0,1.075,0.482,1.075,1.075h2.15c0-1.401-0.898-2.596-2.15-3.04v-1.26h-2.15v1.26
							c-1.251,0.444-2.15,1.639-2.15,3.04c0,1.778,1.447,3.225,3.225,3.225c0.593,0,1.075,0.482,1.075,1.075
							c0,0.593-0.482,1.075-1.075,1.075s-1.075-0.482-1.075-1.075h-2.15c0,1.401,0.899,2.596,2.15,3.04v1.26h2.15v-1.26
							c1.251-0.444,2.15-1.639,2.15-3.04c0-1.778-1.447-3.225-3.225-3.225c-0.593,0-1.075-0.482-1.075-1.075
							C609.058,276.952,609.54,276.47,610.133,276.47z"/>
					</g>
				</g>
				<text transform="matrix(1 0 0 1 577.2559 310.7634)" style="font-family:'Poppins-Bold'; font-size:16.1886px;">05.</text>
			</g>
		</g>
		<g>
			<g>
				<polygon style="fill:#EAEAEA;" points="335.255,237.7 297.574,172.434 335.255,107.167 410.616,107.167 448.299,172.434 
					410.616,237.7 				"/>
			</g>
			<text transform="matrix(1 0 0 1 337.1973 172.4343)" style="font-family:'Poppins-Bold'; font-size:34.5978px;">35%</text>
			<text transform="matrix(1 0 0 1 336.3652 189.4621)" style="font-family:'Poppins-Light'; font-size:11.8291px;">LOREM IPSUM</text>
		</g>
		<g>
			<g>
				<polygon style="fill:#EAEAEA;" points="459.58,445.141 421.899,379.875 459.58,314.609 534.941,314.609 572.624,379.875 
					534.941,445.141 				"/>
			</g>
			<g>
				<g>
					<text transform="matrix(1 0 0 1 457.3525 353.9059)" style="font-family:'Poppins-Bold'; font-size:10.9648px;">Lorem ipsum?</text>
				</g>
				<g>
					<rect x="455.673" y="370.174" style="fill:none;" width="84.063" height="50.318"/>
					<text transform="matrix(1 0 0 1 469.8994 374.6306)"><tspan x="0" y="0" style="font-family:'Poppins-Light'; font-size:6.0212px;">Lorem ipsum dolor</tspan><tspan x="0" y="15.914" style="font-family:'Poppins-Light'; font-size:6.0212px;">Lorem ipsum dolor</tspan><tspan x="0" y="31.829" style="font-family:'Poppins-Light'; font-size:6.0212px;">Lorem ipsum dolor</tspan></text>
					<path d="M465.372,372.741c0,0.633-0.513,1.145-1.146,1.145s-1.145-0.513-1.145-1.145c0-0.633,0.513-1.145,1.145-1.145
						S465.372,372.109,465.372,372.741z"/>
					<path d="M465.372,388.409c0,0.633-0.513,1.145-1.146,1.145s-1.145-0.513-1.145-1.145s0.513-1.145,1.145-1.145
						S465.372,387.776,465.372,388.409z"/>
					<path d="M465.372,404.076c0,0.633-0.513,1.145-1.146,1.145s-1.145-0.513-1.145-1.145s0.513-1.145,1.145-1.145
						S465.372,403.443,465.372,404.076z"/>
				</g>
			</g>
		</g>
		<g>
			<g>
				<polygon style="fill:#EAEAEA;" points="216.457,448.1 178.777,382.833 216.457,317.567 291.819,317.567 329.502,382.833 
					291.819,448.1 				"/>
			</g>
			<text transform="matrix(1 0 0 1 216.4604 371.2653)" style="font-family:'Poppins-Bold'; font-size:34.5978px;">52%</text>
			<rect x="197.652" y="383.769" style="fill:none;" width="112.843" height="36.807"/>
			<text transform="matrix(1 0 0 1 212.749 388.2243)"><tspan x="0" y="0" style="font-family:'Poppins-Light'; font-size:6.0212px;">Lorem ipsum dolor sit amet, </tspan><tspan x="-6.737" y="7.957" style="font-family:'Poppins-Light'; font-size:6.0212px;">consectetuer adipiscing elit, sed </tspan><tspan x="-4.549" y="15.914" style="font-family:'Poppins-Light'; font-size:6.0212px;">diam nonummy nibh euismod.</tspan></text>
		</g>
	</g>
</g>
</svg>
